<?xml version="1.0" standalone="no"?>
<!DOCTYPE svg PUBLIC "-//W3C//DTD SVG 1.1//EN" "http://www.w3.org/Graphics/SVG/1.1/DTD/svg11.dtd" >
<svg xmlns="http://www.w3.org/2000/svg">
<metadata></metadata>
<defs>
<font id="tradegothicw01-romanregular" horiz-adv-x="1024" >
<font-face units-per-em="2048" ascent="1577" descent="-471" />
<missing-glyph horiz-adv-x="624" />
<glyph horiz-adv-x="2048" />
<glyph horiz-adv-x="2048" />
<glyph unicode="&#xd;" horiz-adv-x="0" />
<glyph unicode=" "  horiz-adv-x="624" />
<glyph unicode="&#x09;" horiz-adv-x="624" />
<glyph unicode="&#xa0;" horiz-adv-x="624" />
<glyph unicode="!" horiz-adv-x="681" d="M231 1479h218l-43 -1012h-132zM240 0v225h200v-225h-200z" />
<glyph unicode="&#x22;" horiz-adv-x="681" d="M156 926v553h127v-553h-127zM399 926v553h127v-553h-127z" />
<glyph unicode="#" horiz-adv-x="1251" d="M125 471v115h219l41 311h-203v115h219l64 467h127l-64 -467h279l61 467h127l-61 -467h192v-115h-208l-44 -311h195v-115h-211l-63 -471h-127l63 471h-276l-64 -471h-127l64 471h-203zM471 586h277l43 311h-279z" />
<glyph unicode="$" horiz-adv-x="1251" d="M113 268l118 90q25 -37 60 -75.5t78 -72.5t92 -57.5t102 -25.5v571q-55 12 -126.5 39t-135 74t-107.5 117.5t-44 173.5q0 94 34.5 165.5t93 118t133 70t152.5 23.5v157h139v-157q63 -4 120 -28t106 -57.5t88 -74.5t65 -82l-106 -86q-45 74 -117 129t-156 72v-535 q106 -35 188.5 -72.5t136.5 -88t82 -115t28 -152.5q0 -86 -35 -157.5t-94.5 -123t-138 -80t-167.5 -28.5v-254h-139v254q-74 2 -139.5 26.5t-121.5 63.5t-103 86t-86 92zM297 1126q0 -68 23.5 -114.5t60.5 -78.5t85 -50.5t97 -28.5v498q-61 2 -111.5 -14.5t-85 -46 t-53 -71.5t-16.5 -94zM702 127q55 2 106.5 21.5t91.5 51t64.5 77t24.5 100.5q0 68 -25.5 114t-65.5 77.5t-92 53t-104 37.5v-532z" />
<glyph unicode="%" horiz-adv-x="1820" d="M123 1139q0 72 26.5 134t72.5 108t108.5 72t134.5 26t134.5 -26t108.5 -72t72.5 -108.5t26.5 -133.5q0 -72 -26.5 -134.5t-72.5 -108.5t-108.5 -71.5t-134.5 -25.5t-134.5 25.5t-108.5 71.5t-72.5 108.5t-26.5 134.5zM250 1139q0 -96 61.5 -154.5t153.5 -58.5t153.5 58 t61.5 155q0 96 -61.5 154.5t-153.5 58.5t-153.5 -58.5t-61.5 -154.5zM424 -20l850 1519h121l-850 -1519h-121zM1014 340q0 72 26.5 134.5t72.5 108.5t108.5 71.5t134.5 25.5t134 -25.5t108.5 -71.5t73 -108.5t26.5 -134.5t-26.5 -134.5t-73 -108.5t-108.5 -71.5t-134 -25.5 t-134.5 25.5t-108.5 71.5t-72.5 108.5t-26.5 134.5zM1141 340q0 -96 61.5 -154.5t153.5 -58.5t153.5 58.5t61.5 154.5t-61.5 154.5t-153.5 58.5t-153.5 -58.5t-61.5 -154.5z" />
<glyph unicode="&#x26;" horiz-adv-x="1366" d="M90 403q0 76 28.5 141.5t74 121t102.5 101.5t117 83q-23 33 -43.5 76t-37 90t-26.5 95t-10 93q0 63 22.5 116.5t65.5 93.5t104.5 62.5t139.5 22.5q63 0 118.5 -18.5t96.5 -53t64.5 -86t23.5 -116.5q0 -66 -30 -123.5t-76 -107.5t-100 -94t-106 -81q74 -133 165 -246.5 t169 -199.5q35 47 74 150.5t59 221.5l136 -32q-10 -57 -27.5 -119t-39 -120t-47.5 -110.5t-52 -91.5q25 -25 57.5 -48t67 -39.5t66.5 -27t52 -10.5v-147h-53q-29 0 -64.5 11.5t-75.5 31.5t-79 47t-72 57q-74 -80 -175 -123.5t-247 -43.5q-86 0 -165.5 29.5t-141 85 t-98.5 134t-37 174.5zM254 393q0 -70 26.5 -122t69.5 -85.5t96.5 -50t106.5 -16.5q98 0 172 34.5t127 88.5q-102 117 -197.5 241.5t-175.5 253.5q-45 -29 -86 -61.5t-71.5 -72.5t-49 -91t-18.5 -119zM459 1198q0 -37 9 -74t21.5 -71.5t27.5 -65.5t28 -53q39 25 78 57.5 t70.5 69.5t52 78t20.5 84q0 70 -46 109.5t-102 39.5q-41 0 -70.5 -15.5t-50 -40t-29.5 -56t-9 -62.5z" />
<glyph unicode="'" horiz-adv-x="454" d="M164 926v553h127v-553h-127z" />
<glyph unicode="(" horiz-adv-x="681" d="M135 668q0 227 72 438t209 393h159q-74 -98 -128 -195.5t-91 -200t-55 -213t-18 -233.5q0 -236 77.5 -437.5t212.5 -391.5h-151q-141 186 -214 396t-73 444z" />
<glyph unicode=")" horiz-adv-x="681" d="M106 -172q74 98 128.5 195.5t91 200t55 213t18.5 233.5q0 236 -77.5 437.5t-212.5 391.5h151q141 -186 214 -396t73 -444q0 -227 -72 -438t-209 -393h-160z" />
<glyph unicode="*" d="M152 1161l36 133l281 -133l12 8l-45 310h137l-36 -305l14 -13l270 142l51 -138l-305 -63l-6 -17l217 -217l-110 -86l-150 275h-16l-150 -271l-106 80l213 234l-4 14z" />
<glyph unicode="+" horiz-adv-x="1228" d="M82 469v127h469v469h127v-469h469v-127h-469v-469h-127v469h-469z" />
<glyph unicode="," horiz-adv-x="624" d="M197 -303l96 303h-82v225h201v-225l-129 -303h-86z" />
<glyph unicode="-" horiz-adv-x="681" d="M82 469v127h516v-127h-516z" />
<glyph unicode="." horiz-adv-x="624" d="M211 0v225h201v-225h-201z" />
<glyph unicode="/" horiz-adv-x="569" d="M-16 -20l477 1519h125l-480 -1519h-122z" />
<glyph unicode="0" horiz-adv-x="1251" d="M102 739q0 201 37 344.5t104.5 235.5t164 136t217.5 44t217 -44t163.5 -136t104.5 -235.5t37 -344.5t-37 -344t-104.5 -235t-164 -136t-216.5 -44q-121 0 -217.5 44t-164 136t-104.5 235t-37 344zM258 739q0 -336 93 -484.5t274 -148.5q180 0 273 148.5t93 484.5 t-93 484.5t-273 148.5t-273.5 -148.5t-93.5 -484.5z" />
<glyph unicode="1" horiz-adv-x="1251" d="M289 1300v97q78 23 156.5 47t127.5 55h148v-1372h252v-127h-656v127h256v1202z" />
<glyph unicode="2" horiz-adv-x="1251" d="M135 0v156q63 129 148.5 222t174.5 164.5t176 131t155.5 121t110.5 134t42 173.5q0 129 -79 199.5t-220 70.5q-80 0 -141.5 -29.5t-104.5 -75.5t-68.5 -103.5t-33.5 -112.5l-145 32q18 76 50.5 151t91 134t145.5 95t210 36q90 0 172 -25.5t143.5 -75.5t98.5 -124t37 -168 q0 -113 -49.5 -201t-125 -162.5t-168.5 -142.5t-183.5 -139.5t-166 -152.5t-114.5 -181h805v-127h-961z" />
<glyph unicode="3" horiz-adv-x="1251" d="M70 270l118 82q86 -115 187.5 -180.5t218.5 -65.5q164 0 256 77t92 210q0 156 -98.5 244t-319.5 88h-145v127h88q223 0 322.5 69.5t99.5 206.5q0 55 -22.5 100.5t-59.5 77t-86 49t-103 17.5q-68 0 -117.5 -14.5t-90.5 -41t-76 -64.5t-72 -85l-121 82q37 51 83 97.5 t104.5 80t129 53t160.5 19.5q199 0 312.5 -96t113.5 -273q0 -68 -19 -121t-52 -92.5t-74 -68.5t-84 -45q88 -35 143.5 -81t86 -98.5t42 -107.5t11.5 -106q0 -94 -35 -173t-100.5 -136.5t-158.5 -89t-210 -31.5q-106 0 -191.5 29.5t-151 72.5t-110.5 94t-71 94z" />
<glyph unicode="4" horiz-adv-x="1251" d="M78 348v127l610 1004h217v-1004h254v-127h-254v-348h-147v348h-680zM233 475h525v848h-6z" />
<glyph unicode="5" horiz-adv-x="1251" d="M147 262l134 70q53 -100 139 -163t203 -63q74 0 137 23t111.5 70t76 121.5t27.5 179.5q0 82 -23.5 150.5t-66.5 117.5t-104.5 76.5t-137.5 27.5q-109 0 -187.5 -59t-123.5 -164l-129 29l65 801h135h623v-127h-635l-37 -473q72 66 149 93t154 27q92 0 177.5 -31.5t152 -94 t105 -155.5t38.5 -218q0 -84 -26.5 -176.5t-88 -169t-158.5 -125.5t-239 -49q-94 0 -166.5 23.5t-129 63t-98.5 91t-77 104.5z" />
<glyph unicode="6" horiz-adv-x="1251" d="M123 664q0 174 39 326.5t115.5 266t189.5 178t262 64.5q121 0 204 -27.5t116 -58.5l-64 -125q-51 41 -108.5 62.5t-143.5 21.5q-88 0 -169 -37t-144.5 -112.5t-101 -192.5t-39.5 -276q33 35 71.5 66.5t87.5 56t108.5 39t137.5 14.5q82 0 162 -30t143.5 -88t101 -148.5 t37.5 -208.5q0 -119 -39.5 -208t-106.5 -148.5t-153 -89t-178 -29.5q-115 0 -212 35.5t-167.5 116.5t-109.5 212t-39 320zM283 487q2 -78 28.5 -147.5t72.5 -121.5t110.5 -82t144.5 -30q78 0 140.5 26t105.5 72t65.5 108.5t22.5 138.5q0 86 -26.5 151.5t-69.5 110.5 t-99.5 67.5t-113.5 22.5q-68 0 -134.5 -25.5t-120 -68.5t-88 -100.5t-38.5 -121.5z" />
<glyph unicode="7" horiz-adv-x="1251" d="M152 1352v127h938v-90l-625 -1389h-172l608 1352h-749z" />
<glyph unicode="8" horiz-adv-x="1251" d="M86 385q0 70 25.5 130t69.5 110.5t103.5 90.5t125.5 70v5q-123 47 -193 135t-70 204q0 90 36 160t100.5 116t151.5 69.5t190 23.5q102 0 189 -23.5t151.5 -69.5t100.5 -115.5t36 -160.5q0 -117 -69.5 -204.5t-192.5 -134.5v-5q66 -25 125 -61.5t103 -87.5t69.5 -113.5 t25.5 -138.5q0 -84 -32.5 -157.5t-100 -129t-169 -87t-236.5 -31.5t-236.5 31.5t-169 87t-100.5 129t-33 157.5zM242 385q0 -49 22.5 -99t68.5 -90t118.5 -65t173.5 -25q100 0 172.5 25t119 65t69 90t22.5 99q0 63 -31 113.5t-86 90.5t-130 71.5t-163 60.5 q-68 -29 -132.5 -60.5t-113.5 -71.5t-79.5 -90.5t-30.5 -113.5zM303 1139q0 -59 33 -106.5t82 -83.5t105.5 -59.5t101.5 -35.5q61 14 119.5 41t102.5 62.5t71.5 82t27.5 99.5q0 61 -27.5 105t-72.5 73t-102.5 42t-118.5 13t-118.5 -13t-103 -42t-73 -73t-27.5 -105z" />
<glyph unicode="9" horiz-adv-x="1251" d="M123 1024q0 119 40 208t106.5 148.5t152.5 89t178 29.5q115 0 212 -36t168 -116.5t109.5 -211.5t38.5 -320q0 -176 -38.5 -327.5t-115.5 -265t-189.5 -178t-262.5 -64.5q-121 0 -203.5 27.5t-115.5 58.5l63 124q51 -41 108.5 -62.5t143.5 -21.5q88 0 167 39t140.5 117 t101.5 193.5t46 269.5q-35 -35 -73 -66.5t-87 -56t-109.5 -39t-136.5 -14.5q-84 0 -162.5 29.5t-142 88t-101.5 147.5t-38 210zM279 1028q0 -86 26.5 -151.5t69.5 -110.5t98 -67.5t115 -22.5q135 0 234.5 79t142.5 195q-2 96 -27 174t-71 133.5t-110.5 85t-144.5 29.5 q-78 0 -140 -25.5t-105 -71.5t-65.5 -108.5t-22.5 -138.5z" />
<glyph unicode=":" horiz-adv-x="624" d="M211 0v225h201v-225h-201zM211 594v225h201v-225h-201z" />
<glyph unicode=";" horiz-adv-x="624" d="M197 -303l96 303h-82v225h201v-225l-129 -303h-86zM211 594v225h201v-225h-201z" />
<glyph unicode="&#x3c;" horiz-adv-x="1228" d="M94 475v115l1041 475v-127l-893 -406l893 -405v-127z" />
<glyph unicode="=" horiz-adv-x="1228" d="M82 260v127h1065v-127h-1065zM82 678v127h1065v-127h-1065z" />
<glyph unicode="&#x3e;" horiz-adv-x="1228" d="M94 0v127l893 405l-893 406v127l1041 -473v-119z" />
<glyph unicode="?" horiz-adv-x="909" d="M109 1274q51 111 137 168t196 57q63 0 124 -20.5t107 -60.5t73.5 -97t27.5 -133q0 -68 -23.5 -122t-60.5 -103.5t-78 -93.5t-77.5 -89t-60 -94t-23.5 -104v-115h-140v113q0 78 22.5 136t57.5 107t74 90t73.5 84t57 90.5t22.5 108.5q0 31 -9 62.5t-30.5 56t-54 41 t-78.5 16.5q-72 0 -121 -36t-94 -122zM276 0v225h201v-225h-201z" />
<glyph unicode="@" horiz-adv-x="1638" d="M90 733q0 162 60.5 302.5t164 242.5t241.5 161.5t294 59.5q141 0 268 -46t222.5 -129t151.5 -198.5t56 -255.5q0 -150 -48 -259t-118.5 -182t-152.5 -107.5t-152 -34.5q-61 0 -100 36.5t-43 90.5l-4 -2q-43 -47 -107.5 -86t-136.5 -39q-66 0 -120 25.5t-94 69.5 t-61.5 103.5t-21.5 124.5q0 102 34 202.5t93 179.5t143 128t185 49q84 0 145.5 -35.5t100.5 -121.5l40 123h138l-164 -564q-8 -29 -14.5 -54t-6.5 -46q0 -51 45 -51q57 0 109.5 39t92.5 100.5t63.5 137t23.5 151.5q0 125 -45 221t-123 162.5t-181 101.5t-218 35 q-135 0 -246.5 -49t-193.5 -135t-127 -202t-45 -249q0 -135 48 -249.5t131 -197.5t194.5 -129t238.5 -46q154 0 287 56t219 165h155q-49 -88 -120.5 -153.5t-157.5 -109.5t-184.5 -66.5t-198.5 -22.5q-158 0 -297 58t-241.5 160.5t-162 239.5t-59.5 295zM553 631 q0 -90 34 -145.5t105 -55.5q70 0 131.5 40t105.5 101.5t69.5 133t25.5 133.5q0 49 -13.5 84.5t-34 59.5t-47 34t-52.5 10q-74 0 -133.5 -39t-102.5 -97.5t-65.5 -128t-22.5 -130.5z" />
<glyph unicode="A" horiz-adv-x="1251" d="M49 0l455 1479h244l454 -1479h-172l-139 463h-531l-139 -463h-172zM401 602h449l-213 762h-23z" />
<glyph unicode="B" horiz-adv-x="1366" d="M221 0v1479h545q96 0 173 -29t130 -78t82 -115.5t29 -142.5q0 -123 -57.5 -208t-192.5 -132l2 -4q61 -16 113.5 -50t90.5 -83t59.5 -109.5t21.5 -130.5q0 -84 -28 -155.5t-90.5 -126t-166 -85t-252.5 -30.5h-459zM385 139h307q182 0 271.5 63.5t89.5 203.5 q0 141 -104.5 220t-280.5 79h-283v-566zM385 844h287q92 0 157.5 21.5t107.5 57t60.5 81t18.5 92.5q0 243 -277 243h-2h-352v-495z" />
<glyph unicode="C" horiz-adv-x="1251" d="M86 739q0 180 38 321.5t110.5 239t178 148.5t238.5 51q207 0 329 -112.5t171 -317.5l-152 -45q-20 78 -48.5 140.5t-71.5 105.5t-104.5 66.5t-143.5 23.5q-80 0 -149.5 -37t-121 -113.5t-81 -193.5t-29.5 -277t29.5 -277.5t85 -193t131 -112.5t168.5 -37q86 0 146 29.5 t102 78.5t69 112.5t43 131.5l147 -29q-25 -102 -66.5 -187t-104 -146.5t-149.5 -95t-200 -33.5q-125 0 -228.5 46t-178 139t-116.5 236.5t-42 337.5z" />
<glyph unicode="D" horiz-adv-x="1366" d="M205 0v1479h397q150 0 273.5 -47.5t211 -140.5t135.5 -231t48 -321q0 -164 -43 -299t-129 -233t-212 -152.5t-292 -54.5h-389zM369 139h221q256 0 386 150.5t130 449.5q0 162 -37 275.5t-103.5 186.5t-160.5 105.5t-207 32.5h-229v-1200z" />
<glyph unicode="E" horiz-adv-x="1251" d="M221 0v1479h887v-140h-723v-495h514v-139h-514v-566h764v-139h-928z" />
<glyph unicode="F" horiz-adv-x="1138" d="M205 0v1479h876v-140h-712v-495h528v-139h-528v-705h-164z" />
<glyph unicode="G" horiz-adv-x="1366" d="M98 739q0 195 43 338.5t120 236.5t182.5 139t232.5 46q94 0 176 -23.5t149.5 -75.5t120 -134t86.5 -201l-155 -31q-55 178 -147.5 252t-221.5 74q-82 0 -157.5 -31t-134 -102.5t-94.5 -190t-36 -297.5q0 -178 36 -296.5t94.5 -190.5t134 -102.5t157.5 -30.5 q90 0 156.5 25.5t110.5 70.5t65.5 104.5t21.5 126.5v125h-333v140h497v-711h-135v135h-4q-57 -78 -160.5 -116.5t-226.5 -38.5q-127 0 -232.5 46t-182.5 139t-120 236.5t-43 337.5z" />
<glyph unicode="H" horiz-adv-x="1478" d="M221 0v1479h164v-635h709v635h163v-1479h-163v705h-709v-705h-164z" />
<glyph unicode="I" horiz-adv-x="681" d="M258 0v1479h164v-1479h-164z" />
<glyph unicode="J" horiz-adv-x="909" d="M16 170l123 80q35 -57 93.5 -94t127.5 -37q76 0 128.5 46t52.5 173v1141h164v-1098q0 -211 -87.5 -306t-252.5 -95q-66 0 -117 15t-93 41.5t-76 61.5t-63 72z" />
<glyph unicode="K" horiz-adv-x="1366" d="M238 0v1479h163v-768h5l612 768h194l-458 -557l514 -922h-187l-440 786l-240 -290v-496h-163z" />
<glyph unicode="L" horiz-adv-x="1138" d="M221 0v1479h164v-1340h700v-139h-864z" />
<glyph unicode="M" horiz-adv-x="1705" d="M221 0v1479h254l377 -1196h4l371 1196h258v-1479h-148v1352h-6l-413 -1352h-127l-416 1352h-6v-1352h-148z" />
<glyph unicode="N" horiz-adv-x="1478" d="M221 0v1479h236l645 -1139h8v1139h147v-1479h-135l-749 1319h-4v-1319h-148z" />
<glyph unicode="O" horiz-adv-x="1366" d="M104 739q0 373 152 566.5t426 193.5t426 -193.5t152 -566.5t-152 -566t-426 -193t-426 193t-152 566zM268 739q0 -315 109.5 -467.5t304.5 -152.5t304.5 152.5t109.5 467.5t-109.5 468t-304.5 153t-304.5 -153t-109.5 -468z" />
<glyph unicode="P" horiz-adv-x="1251" d="M205 0v1479h516q119 0 204 -32t140 -87t82 -131t27 -164q0 -184 -132.5 -295t-410.5 -111h-262v-659h-164zM369 799h278q102 0 172 17.5t112 51t60.5 85t18.5 116.5q0 133 -80 201.5t-246 68.5h-315v-540z" />
<glyph unicode="Q" horiz-adv-x="1366" d="M104 739q0 373 152 566.5t426 193.5t426 -193.5t152 -566.5q0 -186 -39 -326.5t-113 -236.5q39 -72 92 -103.5t131 -31.5v-160q-70 0 -118 12.5t-84.5 37t-65.5 60.5t-59 85q-131 -96 -322 -96q-274 0 -426 193.5t-152 565.5zM268 739q0 -315 109.5 -467.5t304.5 -152.5 q143 0 240 82q-37 55 -76 82.5t-105 38.5v157q100 -14 164 -47t113 -104q78 150 78 411q0 315 -109.5 468t-304.5 153t-304.5 -152.5t-109.5 -468.5z" />
<glyph unicode="R" horiz-adv-x="1366" d="M205 0v1479h475q242 0 368 -101.5t126 -287.5q0 -158 -82 -250t-213 -135l313 -705h-178l-299 672h-346v-672h-164zM369 811h297q170 0 257 64.5t87 205.5q0 74 -24.5 124t-70 80t-109 42t-142.5 12h-295v-528z" />
<glyph unicode="S" horiz-adv-x="1251" d="M102 365l150 53q23 -59 55.5 -112.5t78.5 -95.5t108.5 -66.5t144.5 -24.5q164 0 245 75.5t81 190.5q0 94 -61.5 152.5t-154 101.5t-201 79t-200.5 86t-153.5 123.5t-61.5 190.5q0 80 32 149.5t90 121t140 81t183 29.5q174 0 301 -90t186 -274l-147 -33q-14 53 -43 100 t-72 82t-100.5 55.5t-129.5 20.5q-129 0 -201.5 -59.5t-74.5 -170.5q0 -61 35 -104t93 -77t133 -62.5t152.5 -58t153.5 -64.5t134.5 -83t94 -113.5t35.5 -153.5q0 -80 -24.5 -158t-82.5 -139.5t-153.5 -99t-236.5 -37.5q-121 0 -208 35.5t-148.5 91t-102.5 124t-70 134.5z " />
<glyph unicode="T" horiz-adv-x="1138" d="M45 1339v140h1049v-140h-443v-1339h-164v1339h-442z" />
<glyph unicode="U" horiz-adv-x="1478" d="M221 446v1033h164v-1045q0 -66 22.5 -123t67.5 -100t111.5 -67.5t152.5 -24.5t152.5 24.5t112 67.5t68 100.5t22.5 122.5v1045h163v-1033q0 -111 -37.5 -197.5t-106.5 -146t-164 -91t-210 -31.5t-210 31.5t-163.5 91t-106.5 146.5t-38 197z" />
<glyph unicode="V" horiz-adv-x="1138" d="M37 1479h164l364 -1213h4l367 1213h166l-459 -1479h-149z" />
<glyph unicode="W" horiz-adv-x="1705" d="M57 1479h156l274 -1180h5l286 1180h146l295 -1180h4l270 1180h156l-351 -1479h-145l-303 1196h-4l-287 -1196h-145z" />
<glyph unicode="X" horiz-adv-x="1138" d="M29 0l442 772l-414 707h189l317 -543l311 543h189l-404 -707l451 -772h-188l-357 610l-348 -610h-188z" />
<glyph unicode="Y" horiz-adv-x="1138" d="M33 1479h180l356 -678l357 678h180l-455 -856v-623h-164v623z" />
<glyph unicode="Z" horiz-adv-x="1138" d="M92 0v119l742 1220h-674v140h878v-107l-753 -1233h762v-139h-955z" />
<glyph unicode="[" horiz-adv-x="681" d="M156 -152v1631h417v-86h-270v-1459h270v-86h-417z" />
<glyph unicode="\" horiz-adv-x="569" d="M-16 1499h125l477 -1519h-123z" />
<glyph unicode="]" horiz-adv-x="681" d="M109 -66h270v1459h-270v86h417v-1631h-417v86z" />
<glyph unicode="^" horiz-adv-x="1228" d="M96 571l459 908h119l459 -908h-129l-392 768l-385 -768h-131z" />
<glyph unicode="_" d="M0 -154h1024v-102h-1024v102z" />
<glyph unicode="`" horiz-adv-x="569" d="M12 1479h224l182 -291h-137z" />
<glyph unicode="a" d="M86 272q0 88 35 155t112.5 119t201.5 91t302 70v57q0 106 -61.5 150t-157.5 44q-61 0 -107 -15t-79 -39.5t-54.5 -54.5t-31.5 -56l-129 67q51 92 149.5 158.5t249.5 66.5q68 0 133.5 -17t117.5 -55t85 -98.5t33 -148.5v-537q0 -88 7 -138t17 -91h-151l-17 147 q-55 -61 -143 -114t-209 -53q-61 0 -116.5 18t-96.5 55t-65.5 91.5t-24.5 127.5zM233 270q0 -37 16.5 -67.5t41 -52t56.5 -33t63 -11.5q39 0 84 13.5t88 38t83 56.5t72 69v292q-504 -88 -504 -305z" />
<glyph unicode="b" horiz-adv-x="1138" d="M172 0q9 54 9 106v10q-1 58 -1 117v1246h148v-516l8 4q61 51 133 84.5t147 33.5q68 0 144 -28.5t138.5 -93t104 -170t41.5 -261.5q0 -160 -41.5 -266t-105 -169.5t-141.5 -90t-148 -26.5q-96 0 -168.5 36.5t-138.5 96.5l-27 -113h-102zM328 250q78 -78 137 -111t131 -33 q139 0 220 106.5t81 311.5q0 121 -22.5 204t-63.5 134t-96.5 73.5t-118.5 22.5q-66 0 -137.5 -40.5t-130.5 -106.5v-561z" />
<glyph unicode="c" d="M82 532q0 129 30.5 231.5t87 174.5t137.5 109.5t181 37.5q82 0 143.5 -21.5t107.5 -60t80 -92t58 -114.5l-137 -49q-31 98 -93.5 154t-158.5 56q-137 0 -213 -110.5t-76 -315.5t76 -315.5t213 -110.5q51 0 91 9.5t75 32t65.5 60.5t61.5 95l119 -53q-41 -68 -80 -119 t-87 -85t-106.5 -50t-138.5 -16q-100 0 -181 37.5t-137.5 109.5t-87 174t-30.5 231z" />
<glyph unicode="d" horiz-adv-x="1138" d="M94 532q0 156 42 261.5t104.5 170t138.5 93t143 28.5q76 0 147.5 -33.5t133.5 -84.5l8 -4v516h147v-1246q0 -59 -1 -117v-9q0 -53 10 -107h-136l-20 104q-37 -51 -110.5 -87.5t-170.5 -36.5q-72 0 -148.5 26.5t-140 90t-105.5 170t-42 265.5zM242 524q0 -205 80.5 -311.5 t220.5 -106.5q72 0 131 33t137 111v561q-59 66 -131 106.5t-137 40.5q-66 0 -120 -22.5t-95 -73.5t-63.5 -134t-22.5 -204z" />
<glyph unicode="e" d="M82 532q0 129 30.5 231.5t88 174.5t137.5 109.5t178 37.5q82 0 155.5 -27.5t129 -86t88.5 -150.5t33 -219v-98h-693q0 -88 25 -161t68 -125t100 -82t123 -30q98 0 173 48.5t122 132.5l114 -60q-27 -45 -59.5 -89t-80.5 -79.5t-113.5 -57t-155.5 -21.5t-173 31.5 t-147.5 99t-103.5 172t-39 249.5zM233 631h541q0 147 -66.5 237t-187.5 90q-135 0 -205.5 -90t-81.5 -237z" />
<glyph unicode="f" horiz-adv-x="681" d="M55 938v127h181v121q0 94 16 154.5t48 96.5t81 49t115 13q33 0 65.5 -3t65.5 -7v-131q-27 4 -54.5 9t-52.5 5q-76 0 -106.5 -30.5t-30.5 -120.5v-156h231v-127h-231v-938h-147v938h-181z" />
<glyph unicode="g" d="M41 -135q0 80 47 126t133 91q-61 18 -97 61t-36 90q0 70 41 107t102 76q-76 57 -110.5 133t-34.5 164q0 84 30.5 152.5t85 117.5t128 75.5t159.5 26.5t148.5 -18t116.5 -55q47 35 108.5 61.5t120.5 32.5v-148q-47 0 -91 -7t-73 -21q23 -29 48.5 -86.5t25.5 -130.5 q0 -80 -31 -147.5t-83 -118t-123.5 -79t-151.5 -28.5q-66 0 -106 8t-83 21q-84 -25 -84 -99q0 -37 24 -57t64 -20q188 0 316.5 -17.5t206.5 -54.5t110.5 -93.5t32.5 -133.5q0 -59 -29.5 -110.5t-89 -91.5t-150.5 -62.5t-216 -22.5q-225 0 -342 62.5t-117 195.5zM180 -133 q0 -31 12.5 -55.5t49.5 -42t104.5 -26.5t177.5 -9q66 0 124.5 9t102.5 28.5t69.5 48t25.5 67.5q-2 78 -87 118t-282 40q-86 0 -143.5 -17.5t-91 -43t-48 -57t-14.5 -60.5zM225 713q0 -106 76 -176t199 -70q63 0 110 19.5t79 52t48.5 76t16.5 90.5q0 117 -68 185t-203 68 q-127 0 -192.5 -70.5t-65.5 -174.5z" />
<glyph unicode="h" horiz-adv-x="1138" d="M182 0v1479h148v-557h4q63 72 143 117.5t172 45.5q59 0 114.5 -16t98.5 -53t68.5 -96.5t25.5 -145.5v-774h-147v770q0 106 -47 147t-127 41q-41 0 -85 -15t-84 -38.5t-76 -52.5t-60 -55v-797h-148z" />
<glyph unicode="i" horiz-adv-x="569" d="M211 0v1065h147v-1065h-147zM211 1323v176h147v-176h-147z" />
<glyph unicode="j" horiz-adv-x="569" d="M45 -248q16 -8 35.5 -13t42.5 -5q63 0 90 23.5t27 82.5v1225h147v-1235q0 -98 -58.5 -160.5t-160.5 -62.5q-37 0 -68.5 6t-54.5 18v121zM240 1323v176h147v-176h-147z" />
<glyph unicode="k" d="M172 0v1479h147v-953h5l430 539h178l-314 -393l355 -672h-174l-283 545l-197 -226v-319h-147z" />
<glyph unicode="l" horiz-adv-x="569" d="M211 0v1479h147v-1479h-147z" />
<glyph unicode="m" horiz-adv-x="1705" d="M168 0v1065h147v-141l9 8q68 76 149.5 114.5t159.5 38.5q104 0 174 -47t98 -120q72 76 158 121.5t180 45.5q53 0 105.5 -13t94.5 -49t67.5 -99.5t25.5 -161.5v-762h-147v762q0 109 -47.5 152.5t-118.5 43.5q-49 0 -90 -14t-77 -37.5t-68 -53.5t-62 -58v-795h-148v762 q0 109 -47 152.5t-119 43.5q-49 0 -90 -14t-76.5 -37.5t-67.5 -53.5t-63 -58v-795h-147z" />
<glyph unicode="n" horiz-adv-x="1138" d="M182 0v1065h148v-143h4q63 72 143 117.5t172 45.5q59 0 114.5 -16t98.5 -53t68.5 -96.5t25.5 -145.5v-774h-147v770q0 106 -47 147t-127 41q-41 0 -85 -15t-84 -38.5t-76 -52.5t-60 -55v-797h-148z" />
<glyph unicode="o" d="M76 532q0 115 27.5 216.5t82 176t136 117.5t190.5 43t190.5 -43t136 -117.5t82 -176t27.5 -216.5t-27.5 -216t-82 -175.5t-136 -117.5t-190.5 -43t-190.5 43t-136 117.5t-82 176t-27.5 215.5zM223 532q0 -207 78 -316.5t211 -109.5t211 109.5t78 316.5t-78 316.5 t-211 109.5t-211 -109.5t-78 -316.5z" />
<glyph unicode="p" horiz-adv-x="1138" d="M180 -393v1458h148v-125h4q20 31 52 56.5t68.5 46t76.5 31.5t79 11q70 0 148 -26.5t141.5 -90t105 -170t41.5 -266.5q0 -156 -41.5 -261t-104 -169.5t-138.5 -93t-144 -28.5q-76 0 -147.5 33.5t-132.5 84.5l-8 4v-495h-148zM328 254q59 -66 130.5 -107t137.5 -41 q63 0 118.5 23t96.5 74t63.5 134t22.5 204q0 205 -81 311t-220 106q-72 0 -131 -32.5t-137 -110.5v-561z" />
<glyph unicode="q" horiz-adv-x="1138" d="M94 532q0 160 42 266.5t105.5 170t140.5 90t148 26.5q96 0 166 -36.5t117 -96.5l27 113h118v-1458h-147v495l-8 -4q-61 -51 -133 -84.5t-148 -33.5q-68 0 -143.5 28.5t-138 93t-104.5 170t-42 260.5zM242 541q0 -121 22.5 -204t63.5 -134t95 -74t120 -23t137.5 41 t130.5 107v561q-78 78 -137.5 110.5t-130.5 32.5q-139 0 -220 -106.5t-81 -310.5z" />
<glyph unicode="r" horiz-adv-x="681" d="M143 0v1065h148v-211h4q31 55 63.5 97t73.5 71t92 44t117 15v-147q-139 -4 -218 -91t-132 -253v-590h-148z" />
<glyph unicode="s" horiz-adv-x="909" d="M49 182l117 88q53 -76 129 -120t176 -44q119 0 174 54.5t55 122.5t-47 105.5t-116.5 62t-150.5 46t-149.5 56.5t-113.5 91q-41 51 -41 139v16q4 139 102 213q95 73 242 73h8q51 0 105.5 -14t102.5 -38.5t89 -58.5t68 -75l-103 -90q-61 76 -124.5 112.5t-149.5 36.5 q-94 0 -143.5 -43t-49.5 -114q0 -57 46.5 -90t115 -56.5t148 -46t148.5 -60.5t115 -98.5t46 -158.5q0 -78 -31 -136.5t-83 -97.5t-119.5 -58t-139.5 -19q-125 0 -238.5 52t-187.5 150z" />
<glyph unicode="t" horiz-adv-x="681" d="M37 938v127h174v350h147v-350h246v-127h-246v-758q0 -37 28 -55.5t93 -18.5q37 0 70 3t61 8v-121q-20 -6 -63 -11t-109 -5q-121 0 -174 36.5t-53 139.5v782h-174z" />
<glyph unicode="u" horiz-adv-x="1138" d="M182 291v774h148v-770q0 -106 47 -147.5t127 -41.5q41 0 85 15.5t84 39t75.5 52.5t60.5 55v797h147v-1065h-147v143h-4q-63 -72 -143 -117.5t-173 -45.5q-59 0 -114.5 16t-98.5 53t-68.5 96.5t-25.5 145.5z" />
<glyph unicode="v" horiz-adv-x="909" d="M33 1065h149l271 -881h4l270 881h150l-320 -1065h-197z" />
<glyph unicode="w" horiz-adv-x="1366" d="M33 1065h149l215 -819h4l209 819h150l213 -823h4l207 823h149l-284 -1065h-150l-213 823h-4l-211 -823h-149z" />
<glyph unicode="x" horiz-adv-x="909" d="M25 0l335 559l-311 506h166l234 -379l223 379h166l-299 -506l346 -559h-170l-266 436l-259 -436h-165z" />
<glyph unicode="y" horiz-adv-x="909" d="M25 1065h155l287 -813h4l250 813h156l-375 -1159q-29 -90 -69 -147.5t-87 -91.5t-99 -47t-104 -13q-37 0 -60.5 4t-45.5 8v121q16 -2 35.5 -4t44.5 -2q33 0 73.5 7t79.5 32.5t73 76t52 138.5z" />
<glyph unicode="z" horiz-adv-x="909" d="M61 0v106l582 832h-524v127h725v-107l-582 -831h586v-127h-787z" />
<glyph unicode="{" horiz-adv-x="681" d="M98 621v86q63 0 95 40.5t32 118.5v408q0 104 46 164.5t145 60.5h127v-86h-78q-43 0 -67.5 -26.5t-24.5 -88.5v-471q0 -78 -41 -114.5t-111 -46.5v-4q70 -10 111 -47t41 -115v-471q0 -61 24.5 -88t67.5 -27h78v-86h-127q-98 0 -144.5 60.5t-46.5 164.5v408q0 78 -31.5 119 t-95.5 41z" />
<glyph unicode="|" horiz-adv-x="454" d="M164 -20v1519h127v-1519h-127z" />
<glyph unicode="}" horiz-adv-x="681" d="M139 -86h78q43 0 67.5 26.5t24.5 88.5v471q0 78 41 114.5t111 47.5v4q-70 10 -111 47t-41 114v471q0 61 -24.5 88t-67.5 27h-78v86h127q98 0 144.5 -60.5t46.5 -164.5v-408q0 -78 31.5 -118.5t95.5 -40.5v-86q-63 0 -95 -41t-32 -119v-408q0 -104 -46 -164.5t-145 -60.5 h-127v86z" />
<glyph unicode="~" horiz-adv-x="1228" d="M135 483q18 35 43 69t56.5 59.5t71.5 41t91 15.5q57 0 117.5 -21.5t118.5 -48.5q59 -27 110.5 -48.5t90.5 -21.5q31 0 56 13.5t46.5 34t40 46t37.5 52.5l80 -90q-25 -35 -51.5 -68t-57.5 -58.5t-68.5 -41t-85.5 -15.5q-61 0 -111 21.5t-102 48.5q-51 27 -105 48.5 t-126 21.5q-68 0 -107.5 -46t-64.5 -104z" />
<glyph unicode="&#xa1;" horiz-adv-x="681" d="M233 -414l43 1012h132l43 -1012h-218zM242 840v225h200v-225h-200z" />
<glyph unicode="&#xa2;" horiz-adv-x="1251" d="M184 532q0 129 31 231.5t87 174.5t137 109.5t182 37.5q78 0 133 -18l65 182h117l-84 -231q53 -39 91 -95.5t67 -125.5l-138 -49q-25 82 -71 131l-273 -756q39 -16 93 -17q51 0 91 9.5t74.5 32t65.5 60.5t61 95l119 -53q-41 -68 -80 -119t-87 -85t-106.5 -50t-137.5 -16 q-37 0 -72 5t-66 17l-84 -229h-116l100 278q-96 68 -147.5 189.5t-51.5 291.5zM332 532q0 -238 102 -344l275 754q-39 16 -88 16q-137 0 -213 -110.5t-76 -315.5z" />
<glyph unicode="&#xa3;" horiz-adv-x="1251" d="M53 672v127h201q-10 59 -17.5 116.5t-7.5 124.5q0 104 30 188.5t87 145t141 93t193 32.5q193 0 306.5 -99.5t156.5 -281.5l-139 -24q-14 43 -36 92t-59 90t-90 68.5t-131 27.5q-90 0 -148.5 -26.5t-92 -69.5t-48 -96.5t-14.5 -106.5q0 -86 7 -153.5t14 -120.5h311v-127 h-295q8 -33 10 -66t2 -74q0 -61 -11 -132.5t-46 -143.5q51 -25 99 -51.5t91 -48t84 -36t82 -14.5q145 0 217 69t99 194l131 -25q-31 -186 -135.5 -275t-274.5 -89q-78 0 -141.5 14t-118.5 37.5t-106.5 51.5t-102.5 56q-41 -59 -99.5 -103t-146.5 -56v159q43 8 85 36t74 73 t52.5 105.5t20.5 131.5q0 109 -15 187h-219z" />
<glyph unicode="&#xa4;" horiz-adv-x="1251" d="M115 311l112 113q-53 66 -81.5 145.5t-28.5 169.5t28.5 170t81.5 146l-112 112l86 86l114 -114q61 51 140.5 79.5t169.5 28.5t168.5 -28.5t140.5 -79.5l115 114l86 -86l-113 -112q53 -66 82 -146t29 -170t-29 -170t-82 -145l113 -113l-86 -86l-115 115q-61 -51 -140 -80 t-169 -29t-169 29t-141 80l-114 -115zM244 739q0 -90 29.5 -162.5t81 -123t121 -77t149.5 -26.5t149.5 26.5t120.5 77t81 123t30 162.5q0 88 -30 161t-81 123t-120.5 77.5t-149.5 27.5t-149.5 -27.5t-121 -77.5t-81 -123t-29.5 -161z" />
<glyph unicode="&#xa5;" horiz-adv-x="1251" d="M100 1479h148l377 -711l376 711h148l-301 -566h209v-127h-275l-88 -163v-17h363v-127h-363v-479h-139v479h-362v127h362v17l-86 163h-276v127h208z" />
<glyph unicode="&#xa6;" horiz-adv-x="454" d="M164 -20v573h127v-573h-127zM164 926v573h127v-573h-127z" />
<glyph unicode="&#xa7;" d="M119 815q0 96 61.5 153.5t184.5 63.5q-27 33 -48.5 59.5t-37 52t-24.5 55.5t-9 71q0 45 19.5 87t53 73.5t82 50t107.5 18.5q92 0 158.5 -39t140.5 -131l-98 -55q-10 12 -26.5 31.5t-40.5 38t-55.5 32t-70.5 13.5q-61 0 -96 -36t-35 -83q0 -23 7 -43.5t32 -51t74 -82 t133 -135.5t137 -141t84 -102t42 -83t11 -83q0 -51 -17.5 -90t-48 -65.5t-71.5 -43t-86 -22.5q51 -59 81 -115.5t30 -138.5q0 -45 -17.5 -89t-52.5 -79t-88 -56.5t-123 -21.5q-104 0 -186 50t-127 130l104 66q35 -53 85 -94t124 -41q61 0 101 35.5t40 95.5q0 45 -39 104 t-98 125t-128 135.5t-128 137t-100 130t-41 113.5zM258 821q0 -27 10.5 -51.5t32 -52t52 -60t73.5 -77.5t74.5 -75t56.5 -47.5t46.5 -24.5t43.5 -7q47 0 83 30.5t36 84.5q0 20 -8 43.5t-27.5 53.5t-53.5 68.5t-83 88.5q-47 47 -79 74.5t-54.5 42t-41 18.5t-38.5 4 q-51 0 -87 -33t-36 -80z" />
<glyph unicode="&#xa8;" horiz-adv-x="569" d="M33 1208v193h180v-193h-180zM356 1208v193h181v-193h-181z" />
<glyph unicode="&#xa9;" horiz-adv-x="1638" d="M49 741q0 164 61.5 302.5t168 239.5t246 158.5t296.5 57.5q156 0 295 -57.5t244.5 -158.5t167 -239.5t61.5 -302.5q0 -166 -61.5 -305t-167 -240.5t-244.5 -158.5t-295 -57q-158 0 -297 57t-245.5 158.5t-168 240.5t-61.5 305zM197 741q0 -139 48 -255.5t132 -201.5 t197.5 -133.5t246.5 -48.5q131 0 244 48.5t197 133.5t132 201.5t48 255.5q0 135 -48 252t-132 202t-197 133t-244 48q-133 0 -246.5 -48t-197.5 -133t-132 -201.5t-48 -252.5zM399 743q0 100 30 185.5t87 147t139 96t185 34.5q72 0 136 -20.5t114.5 -60.5t84 -98t46.5 -134 h-138q-16 88 -80.5 139t-160.5 51q-72 0 -127.5 -25.5t-92 -70.5t-56 -106.5t-19.5 -135.5q0 -72 20.5 -134t59.5 -110t94 -76t125 -28q98 0 161.5 54.5t75.5 146.5h140q-31 -150 -133.5 -237t-243.5 -87q-102 0 -184 36t-140.5 99.5t-90.5 149.5t-32 184z" />
<glyph unicode="&#xaa;" horiz-adv-x="614" d="M29 1012q0 104 96 166.5t317 101.5v27q0 49 -35.5 73.5t-95.5 24.5q-80 0 -120.5 -28.5t-55.5 -61.5l-84 49q35 55 98.5 95t161.5 40q43 0 87 -10t78 -32.5t55.5 -59.5t21.5 -90v-322q0 -53 4 -83t12 -54h-108l-12 72q-35 -25 -88.5 -54.5t-131.5 -29.5q-82 0 -141 44 t-59 132zM139 1010q0 -33 25.5 -56.5t73.5 -23.5q55 0 112.5 27.5t91.5 60.5v168q-147 -29 -225 -70t-78 -106z" />
<glyph unicode="&#xab;" d="M164 532l266 324h143l-264 -324l264 -323h-139zM451 532l266 324h143l-264 -324l264 -323h-139z" />
<glyph unicode="&#xac;" horiz-adv-x="1228" d="M82 678v127h1065v-545h-127v418h-938z" />
<glyph unicode="&#xad;" horiz-adv-x="681" d="M82 469v127h516v-127h-516z" />
<glyph unicode="&#xae;" horiz-adv-x="1638" d="M49 741q0 164 61.5 302.5t168 239.5t246 158.5t296.5 57.5q156 0 295 -57.5t244.5 -158.5t167 -239.5t61.5 -302.5q0 -166 -61.5 -305t-167 -240.5t-244.5 -158.5t-295 -57q-158 0 -297 57t-245.5 158.5t-168 240.5t-61.5 305zM197 741q0 -139 48 -255.5t132 -201.5 t197.5 -133.5t246.5 -48.5q131 0 244 48.5t197 133.5t132 201.5t48 255.5q0 135 -48 252t-132 202t-197 133t-244 48q-133 0 -246.5 -48t-197.5 -133t-132 -201.5t-48 -252.5zM524 301v877h336q158 0 234.5 -60.5t76.5 -189.5q0 -119 -65.5 -174.5t-163.5 -67.5l250 -385 h-148l-233 381h-152v-381h-135zM659 793h160q123 0 170 35.5t47 107.5q0 63 -40 97t-154 34h-183v-274z" />
<glyph unicode="&#xaf;" horiz-adv-x="569" d="M-35 1253v123h639v-123h-639z" />
<glyph unicode="&#xb0;" horiz-adv-x="819" d="M115 1204q0 61 22.5 114.5t62.5 93.5t94 63.5t116 23.5q61 0 114.5 -23.5t93 -63.5t63.5 -93t24 -115q0 -61 -24 -115.5t-63.5 -94.5t-93 -62.5t-114.5 -22.5t-115.5 22.5t-94.5 62.5t-62.5 94.5t-22.5 115.5zM213 1204q0 -88 57.5 -146.5t139.5 -58.5t139 58.5t57 146.5 t-57 146.5t-139 58.5t-139.5 -58.5t-57.5 -146.5z" />
<glyph unicode="&#xb1;" horiz-adv-x="1228" d="M82 0v127h1065v-127h-1065zM82 571v127h469v367h127v-367h469v-127h-469v-366h-127v366h-469z" />
<glyph unicode="&#xb2;" horiz-adv-x="749" d="M57 598v111q41 76 95.5 130t113 97t113.5 77t99 68.5t72 74.5t28 93q0 66 -46.5 107t-136.5 41q-53 0 -94 -15.5t-70.5 -41t-48 -58.5t-28.5 -65l-95 32q14 49 42 94.5t70 80t99.5 55t130.5 20.5q129 0 208 -63.5t79 -173.5q0 -72 -29.5 -126.5t-78 -97.5t-106.5 -80.5 t-116.5 -75.5t-108.5 -82t-81 -100h524v-102h-635z" />
<glyph unicode="&#xb3;" horiz-adv-x="749" d="M25 758l81 65q55 -74 120 -104.5t141 -30.5q104 0 159.5 41t55.5 111q0 92 -58.5 137t-204.5 45h-92v102h84q117 0 177.5 35t60.5 119q0 47 -46 83t-122 36q-88 0 -133 -25.5t-90 -79.5l-86 58q49 63 120.5 106t188.5 43q129 0 203.5 -57.5t74.5 -163.5q0 -80 -38.5 -128 t-94.5 -67v-4q45 -14 77 -40.5t51.5 -59.5t28.5 -69t9 -68q0 -115 -87 -185.5t-238 -70.5q-70 0 -125.5 17.5t-98.5 43t-72.5 56t-45.5 55.5z" />
<glyph unicode="&#xb4;" horiz-adv-x="569" d="M152 1188l182 291h223l-268 -291h-137z" />
<glyph unicode="&#xb5;" horiz-adv-x="1138" d="M182 -393v1458h148v-770q0 -106 47 -147.5t127 -41.5q41 0 85 15.5t84 39t75.5 52.5t60.5 55v797h147v-1065h-147v143h-4q-63 -72 -143 -117.5t-173 -45.5q-88 0 -159 32v-405h-148z" />
<glyph unicode="&#xb6;" d="M20 1071q0 203 122 305.5t339 102.5h568v-103h-146v-1548h-123v1548h-209v-1548h-122v850q-92 0 -171 30.5t-136.5 85t-89.5 126t-32 151.5z" />
<glyph unicode="&#xb7;" horiz-adv-x="624" d="M184 530q0 53 36 91t91 38q53 0 90 -37.5t37 -91.5q0 -53 -36.5 -88.5t-90.5 -35.5q-55 0 -91 35.5t-36 88.5z" />
<glyph unicode="&#xb8;" horiz-adv-x="569" d="M59 -416l35 90q29 -18 65 -28.5t70 -10.5q115 0 115 89q0 33 -22.5 55t-61.5 22q-23 0 -47.5 -3t-46.5 -13l-35 39l129 176h98l-96 -119l4 -4q31 10 62 10q88 0 131 -53t41 -119q-2 -86 -66.5 -130t-181.5 -44q-63 0 -109.5 13.5t-83.5 29.5z" />
<glyph unicode="&#xb9;" horiz-adv-x="749" d="M156 1370v68q49 14 100 28.5t82 32.5h111v-799h161v-102h-436v102h156v697z" />
<glyph unicode="&#xba;" horiz-adv-x="614" d="M25 1167q0 156 76.5 244t205.5 88q131 0 207 -88t76 -244t-76 -243.5t-207 -87.5q-129 0 -205.5 87.5t-76.5 243.5zM143 1171q0 -117 41 -177t123 -60t123 61.5t41 171.5q0 111 -41 172.5t-123 61.5q-78 0 -121 -62t-43 -168z" />
<glyph unicode="&#xbb;" d="M164 209l264 323l-264 324h143l266 -324l-270 -323h-139zM451 209l264 323l-264 324h143l266 -324l-270 -323h-139z" />
<glyph unicode="&#xbc;" horiz-adv-x="1875" d="M180 1370v68q49 14 100.5 28.5t81.5 32.5h111v-799h162v-102h-436v102h155v697zM449 -20l899 1519h127l-906 -1519h-120zM1075 209v92l379 588h158v-578h166v-102h-166v-209h-111v209h-426zM1200 311h301v459h-4z" />
<glyph unicode="&#xbd;" horiz-adv-x="1875" d="M180 1370v68q49 14 100.5 28.5t81.5 32.5h111v-799h162v-102h-436v102h155v697zM408 -20l899 1519h127l-906 -1519h-120zM1126 0v111q41 76 95.5 130t113 97t113.5 77t99 68.5t72 74.5t28 93q0 66 -46.5 107t-136.5 41q-53 0 -94 -15.5t-70.5 -41t-48 -58.5t-28.5 -66 l-95 33q14 49 42 94.5t70 80t99.5 55t130.5 20.5q129 0 208 -63.5t79 -173.5q0 -72 -29.5 -126.5t-77.5 -97.5t-106.5 -80.5t-117 -75.5t-108.5 -82t-81 -100h524v-102h-635z" />
<glyph unicode="&#xbe;" horiz-adv-x="1875" d="M98 758l82 65q55 -74 120 -104.5t140 -30.5q104 0 159.5 41t55.5 111q0 92 -58 137t-204 45h-92v102h84q117 0 177.5 35t60.5 119q0 47 -46.5 83t-121.5 36q-88 0 -133.5 -25.5t-90.5 -79.5l-86 58q49 63 121 106t189 43q129 0 203.5 -57.5t74.5 -163.5q0 -80 -39 -128 t-94 -67v-4q45 -14 77 -40.5t51.5 -59.5t28.5 -69t9 -68q0 -115 -87 -185.5t-239 -70.5q-70 0 -125 17.5t-98 43t-72.5 56t-46.5 55.5zM481 -20l899 1519h127l-905 -1519h-121zM1075 209v92l379 588h158v-578h166v-102h-166v-209h-111v209h-426zM1200 311h301v459h-4z" />
<glyph unicode="&#xbf;" horiz-adv-x="909" d="M135 -123q0 66 23.5 121t60.5 104.5t78 93.5t78 89t60.5 93t23.5 105v115h139v-113q0 -78 -22.5 -136t-57.5 -107t-73.5 -90t-73.5 -84t-57.5 -91.5t-22.5 -107.5q0 -31 9 -62.5t30.5 -56t53.5 -41t79 -16.5q72 0 121 35.5t94 121.5l123 -59q-51 -111 -137 -168t-197 -57 q-66 0 -125 20.5t-105.5 60.5t-74 97t-27.5 133zM432 840v225h201v-225h-201z" />
<glyph unicode="&#xc0;" horiz-adv-x="1251" d="M49 0l455 1479h244l454 -1479h-172l-139 463h-531l-139 -463h-172zM354 1848h224l182 -291h-137zM401 602h449l-213 762h-23z" />
<glyph unicode="&#xc1;" horiz-adv-x="1251" d="M49 0l455 1479h244l454 -1479h-172l-139 463h-531l-139 -463h-172zM401 602h449l-213 762h-23zM494 1557l182 291h223l-268 -291h-137z" />
<glyph unicode="&#xc2;" horiz-adv-x="1251" d="M49 0l455 1479h244l454 -1479h-172l-139 463h-531l-139 -463h-172zM328 1557l200 291h193l205 -291h-164l-137 192l-133 -192h-164zM401 602h449l-213 762h-23z" />
<glyph unicode="&#xc3;" horiz-adv-x="1251" d="M49 0l455 1479h244l454 -1479h-172l-139 463h-531l-139 -463h-172zM276 1575q10 92 63.5 158t156.5 66q41 0 77.5 -11.5t71.5 -25.5q35 -16 67.5 -27.5t65.5 -11.5q39 0 64.5 24.5t31.5 65.5h103q-4 -37 -19.5 -76t-42 -70.5t-61.5 -52t-76 -20.5t-81 12t-79 27 q-41 16 -78.5 27.5t-74.5 11.5q-33 0 -58.5 -31t-27.5 -66h-103zM401 602h449l-213 762h-23z" />
<glyph unicode="&#xc4;" horiz-adv-x="1251" d="M49 0l455 1479h244l454 -1479h-172l-139 463h-531l-139 -463h-172zM375 1577v193h180v-193h-180zM401 602h449l-213 762h-23zM698 1577v193h181v-193h-181z" />
<glyph unicode="&#xc5;" horiz-adv-x="1251" d="M49 0l455 1479h244l454 -1479h-172l-139 463h-531l-139 -463h-172zM401 602h449l-213 762h-23zM422 1762q0 86 59.5 145t145.5 59t145 -59t59 -145t-59 -145.5t-145 -59.5t-145.5 59.5t-59.5 145.5zM512 1762q0 -47 34 -81t81 -34t80.5 34t33.5 81t-33.5 80.5t-80.5 33.5 t-81 -33.5t-34 -80.5z" />
<glyph unicode="&#xc6;" horiz-adv-x="2048" d="M33 0l833 1479h1039v-140h-723v-495h514v-139h-514v-566h764v-139h-928v463h-545l-254 -463h-186zM553 602h465v762h-45z" />
<glyph unicode="&#xc7;" horiz-adv-x="1251" d="M86 739q0 180 38 321.5t110.5 239t178 148.5t238.5 51q207 0 329 -112.5t171 -317.5l-152 -45q-20 78 -48.5 140.5t-71.5 105.5t-104.5 66.5t-143.5 23.5q-80 0 -149.5 -37t-121 -113.5t-81 -193.5t-29.5 -277t29.5 -277.5t85 -193t131 -112.5t168.5 -37q86 0 146 29.5 t102 78.5t69 112.5t43 131.5l147 -29q-23 -96 -61.5 -178t-95 -141.5t-134 -96t-178.5 -44.5l-79 -101l4 -4q31 10 61 10q88 0 131 -53t41 -119q-2 -86 -66.5 -130t-181.5 -44q-63 0 -109 13.5t-83 29.5l35 90q29 -18 64.5 -28.5t70.5 -10.5q115 0 115 89q0 33 -23 55 t-61 22q-23 0 -47.5 -3t-47.5 -13l-34 39l114 158q-115 8 -211 57t-164.5 143t-106.5 232.5t-38 324.5z" />
<glyph unicode="&#xc8;" horiz-adv-x="1251" d="M221 0v1479h887v-140h-723v-495h514v-139h-514v-566h764v-139h-928zM411 1848h224l182 -291h-137z" />
<glyph unicode="&#xc9;" horiz-adv-x="1251" d="M221 0v1479h887v-140h-723v-495h514v-139h-514v-566h764v-139h-928zM551 1557l182 291h223l-268 -291h-137z" />
<glyph unicode="&#xca;" horiz-adv-x="1251" d="M221 0v1479h887v-140h-723v-495h514v-139h-514v-566h764v-139h-928zM385 1557l200 291h193l205 -291h-164l-137 192l-133 -192h-164z" />
<glyph unicode="&#xcb;" horiz-adv-x="1251" d="M221 0v1479h887v-140h-723v-495h514v-139h-514v-566h764v-139h-928zM432 1577v193h180v-193h-180zM755 1577v193h181v-193h-181z" />
<glyph unicode="&#xcc;" horiz-adv-x="681" d="M69 1848h224l182 -291h-137zM258 0v1479h164v-1479h-164z" />
<glyph unicode="&#xcd;" horiz-adv-x="681" d="M209 1557l182 291h223l-268 -291h-137zM258 0v1479h164v-1479h-164z" />
<glyph unicode="&#xce;" horiz-adv-x="681" d="M43 1555l200 291h193l205 -291h-164l-137 192l-133 -192h-164zM258 0v1479h164v-1479h-164z" />
<glyph unicode="&#xcf;" horiz-adv-x="681" d="M90 1577v193h180v-193h-180zM258 0v1479h164v-1479h-164zM413 1577v193h181v-193h-181z" />
<glyph unicode="&#xd0;" horiz-adv-x="1366" d="M66 705v139h139v635h397q150 0 273.5 -47.5t211 -140.5t135.5 -231t48 -321q0 -164 -43 -299t-129 -233t-212 -152.5t-292 -54.5h-389v705h-139zM369 139h221q256 0 386 150.5t130 449.5q0 162 -37 275.5t-103.5 186.5t-160.5 105.5t-207 32.5h-229v-495h385v-139h-385 v-566z" />
<glyph unicode="&#xd1;" horiz-adv-x="1478" d="M221 0v1479h236l645 -1139h8v1139h147v-1479h-135l-749 1319h-4v-1319h-148zM389 1575q10 92 63.5 158t156.5 66q41 0 77.5 -11.5t71.5 -25.5q35 -16 67.5 -27.5t65.5 -11.5q39 0 64.5 24.5t31.5 65.5h103q-4 -37 -19.5 -76t-42 -70.5t-61.5 -52t-76 -20.5t-81 12t-79 27 q-41 16 -78.5 27.5t-74.5 11.5q-33 0 -58.5 -31t-27.5 -66h-103z" />
<glyph unicode="&#xd2;" horiz-adv-x="1366" d="M104 739q0 373 152 566.5t426 193.5t426 -193.5t152 -566.5t-152 -566t-426 -193t-426 193t-152 566zM268 739q0 -315 109.5 -467.5t304.5 -152.5t304.5 152.5t109.5 467.5t-109.5 468t-304.5 153t-304.5 -153t-109.5 -468zM411 1848h224l182 -291h-137z" />
<glyph unicode="&#xd3;" horiz-adv-x="1366" d="M104 739q0 373 152 566.5t426 193.5t426 -193.5t152 -566.5t-152 -566t-426 -193t-426 193t-152 566zM268 739q0 -315 109.5 -467.5t304.5 -152.5t304.5 152.5t109.5 467.5t-109.5 468t-304.5 153t-304.5 -153t-109.5 -468zM551 1557l182 291h223l-268 -291h-137z" />
<glyph unicode="&#xd4;" horiz-adv-x="1366" d="M104 739q0 373 152 566.5t426 193.5t426 -193.5t152 -566.5t-152 -566t-426 -193t-426 193t-152 566zM268 739q0 -315 109.5 -467.5t304.5 -152.5t304.5 152.5t109.5 467.5t-109.5 468t-304.5 153t-304.5 -153t-109.5 -468zM385 1557l200 291h193l205 -291h-164l-137 192 l-133 -192h-164z" />
<glyph unicode="&#xd5;" horiz-adv-x="1366" d="M104 739q0 373 152 566.5t426 193.5t426 -193.5t152 -566.5t-152 -566t-426 -193t-426 193t-152 566zM268 739q0 -315 109.5 -467.5t304.5 -152.5t304.5 152.5t109.5 467.5t-109.5 468t-304.5 153t-304.5 -153t-109.5 -468zM333 1575q10 92 63.5 158t156.5 66 q41 0 77.5 -11.5t71.5 -25.5q35 -16 67.5 -27.5t65.5 -11.5q39 0 64.5 24.5t31.5 65.5h103q-4 -37 -19.5 -76t-42 -70.5t-61.5 -52t-76 -20.5t-81 12t-79 27q-41 16 -78.5 27.5t-74.5 11.5q-33 0 -58.5 -31t-27.5 -66h-103z" />
<glyph unicode="&#xd6;" horiz-adv-x="1366" d="M104 739q0 373 152 566.5t426 193.5t426 -193.5t152 -566.5t-152 -566t-426 -193t-426 193t-152 566zM268 739q0 -315 109.5 -467.5t304.5 -152.5t304.5 152.5t109.5 467.5t-109.5 468t-304.5 153t-304.5 -153t-109.5 -468zM432 1577v193h180v-193h-180zM755 1577v193 h181v-193h-181z" />
<glyph unicode="&#xd7;" horiz-adv-x="1228" d="M82 90l442 442l-442 443l90 90l442 -447l443 447l90 -90l-442 -443l442 -442l-90 -90l-443 442l-442 -442z" />
<glyph unicode="&#xd8;" horiz-adv-x="1366" d="M66 -131l192 305q-154 197 -154 565q0 373 152 566.5t426 193.5q203 0 336 -106l115 184h143l-170 -270q74 -96 114 -237.5t40 -330.5q0 -373 -152 -566t-426 -193q-201 0 -340 110l-139 -221h-137zM268 739q0 -264 82 -415l588 940q-100 96 -256 96 q-195 0 -304.5 -152.5t-109.5 -468.5zM424 219q94 -100 258 -100q195 0 304.5 152.5t109.5 467.5q0 266 -82 420z" />
<glyph unicode="&#xd9;" horiz-adv-x="1478" d="M221 446v1033h164v-1045q0 -66 22.5 -123t67.5 -100t111.5 -67.5t152.5 -24.5t152.5 24.5t112 67.5t68 100.5t22.5 122.5v1045h163v-1033q0 -111 -37.5 -197.5t-106.5 -146t-164 -91t-210 -31.5t-210 31.5t-163.5 91t-106.5 146.5t-38 197zM467 1848h224l182 -291h-137z " />
<glyph unicode="&#xda;" horiz-adv-x="1478" d="M221 446v1033h164v-1045q0 -66 22.5 -123t67.5 -100t111.5 -67.5t152.5 -24.5t152.5 24.5t112 67.5t68 100.5t22.5 122.5v1045h163v-1033q0 -111 -37.5 -197.5t-106.5 -146t-164 -91t-210 -31.5t-210 31.5t-163.5 91t-106.5 146.5t-38 197zM607 1557l182 291h223 l-268 -291h-137z" />
<glyph unicode="&#xdb;" horiz-adv-x="1478" d="M221 446v1033h164v-1045q0 -66 22.5 -123t67.5 -100t111.5 -67.5t152.5 -24.5t152.5 24.5t112 67.5t68 100.5t22.5 122.5v1045h163v-1033q0 -111 -37.5 -197.5t-106.5 -146t-164 -91t-210 -31.5t-210 31.5t-163.5 91t-106.5 146.5t-38 197zM441 1555l200 291h193 l205 -291h-164l-137 192l-133 -192h-164z" />
<glyph unicode="&#xdc;" horiz-adv-x="1478" d="M221 446v1033h164v-1045q0 -66 22.5 -123t67.5 -100t111.5 -67.5t152.5 -24.5t152.5 24.5t112 67.5t68 100.5t22.5 122.5v1045h163v-1033q0 -111 -37.5 -197.5t-106.5 -146t-164 -91t-210 -31.5t-210 31.5t-163.5 91t-106.5 146.5t-38 197zM488 1575v193h180v-193h-180z M811 1575v193h181v-193h-181z" />
<glyph unicode="&#xdd;" horiz-adv-x="1138" d="M33 1479h180l356 -678l357 678h180l-455 -856v-623h-164v623zM437 1557l182 291h223l-268 -291h-137z" />
<glyph unicode="&#xde;" horiz-adv-x="1251" d="M205 0v1479h164v-287h352q119 0 204 -32t140 -87t82 -131t27 -164q0 -184 -132.5 -294.5t-410.5 -110.5h-262v-373h-164zM369 512h278q102 0 172 17.5t112 51t60.5 85t18.5 116.5q0 133 -80 202t-246 69h-315v-541z" />
<glyph unicode="&#xdf;" horiz-adv-x="1138" d="M193 0v1135q0 98 32.5 167.5t86 112.5t122 63.5t139.5 20.5q92 0 162 -26.5t117 -74.5t70.5 -113.5t23.5 -141.5q0 -104 -45 -184t-137 -125v-5q143 -41 207.5 -154.5t64.5 -273.5q0 -102 -28.5 -180t-77.5 -132t-111.5 -81.5t-130.5 -27.5q-74 0 -123 14t-92 41l55 121 q20 -16 57.5 -33t90.5 -17q55 0 95 23t66.5 60.5t39 90t12.5 111.5q0 100 -25.5 170t-74 113t-117 61.5t-154.5 18.5v127h60q45 0 84.5 18.5t70.5 52t48.5 78.5t17.5 100q0 115 -56.5 178.5t-173.5 63.5q-121 0 -172 -69.5t-57 -204.5v-1098h-147z" />
<glyph unicode="&#xe0;" d="M86 272q0 88 35 155t112.5 119t201.5 91t302 70v57q0 106 -61.5 150t-157.5 44q-61 0 -107 -15t-79 -39.5t-54.5 -54.5t-31.5 -56l-129 67q51 92 149.5 158.5t249.5 66.5q68 0 133.5 -17t117.5 -55t85 -98.5t33 -148.5v-537q0 -88 7 -138t17 -91h-151l-17 147 q-55 -61 -143 -114t-209 -53q-61 0 -116.5 18t-96.5 55t-65.5 91.5t-24.5 127.5zM229 1479h224l182 -291h-137zM233 270q0 -37 16.5 -67.5t41 -52t56.5 -33t63 -11.5q39 0 84 13.5t88 38t83 56.5t72 69v292q-504 -88 -504 -305z" />
<glyph unicode="&#xe1;" d="M86 272q0 88 35 155t112.5 119t201.5 91t302 70v57q0 106 -61.5 150t-157.5 44q-61 0 -107 -15t-79 -39.5t-54.5 -54.5t-31.5 -56l-129 67q51 92 149.5 158.5t249.5 66.5q68 0 133.5 -17t117.5 -55t85 -98.5t33 -148.5v-537q0 -88 7 -138t17 -91h-151l-17 147 q-55 -61 -143 -114t-209 -53q-61 0 -116.5 18t-96.5 55t-65.5 91.5t-24.5 127.5zM233 270q0 -37 16.5 -67.5t41 -52t56.5 -33t63 -11.5q39 0 84 13.5t88 38t83 56.5t72 69v292q-504 -88 -504 -305zM369 1188l182 291h223l-268 -291h-137z" />
<glyph unicode="&#xe2;" d="M86 272q0 88 35 155t112.5 119t201.5 91t302 70v57q0 106 -61.5 150t-157.5 44q-61 0 -107 -15t-79 -39.5t-54.5 -54.5t-31.5 -56l-129 67q51 92 149.5 158.5t249.5 66.5q68 0 133.5 -17t117.5 -55t85 -98.5t33 -148.5v-537q0 -88 7 -138t17 -91h-151l-17 147 q-55 -61 -143 -114t-209 -53q-61 0 -116.5 18t-96.5 55t-65.5 91.5t-24.5 127.5zM203 1188l200 291h193l205 -291h-164l-137 192l-133 -192h-164zM233 270q0 -37 16.5 -67.5t41 -52t56.5 -33t63 -11.5q39 0 84 13.5t88 38t83 56.5t72 69v292q-504 -88 -504 -305z" />
<glyph unicode="&#xe3;" d="M86 272q0 88 35 155t112.5 119t201.5 91t302 70v57q0 106 -61.5 150t-157.5 44q-61 0 -107 -15t-79 -39.5t-54.5 -54.5t-31.5 -56l-129 67q51 92 149.5 158.5t249.5 66.5q68 0 133.5 -17t117.5 -55t85 -98.5t33 -148.5v-537q0 -88 7 -138t17 -91h-151l-17 147 q-55 -61 -143 -114t-209 -53q-61 0 -116.5 18t-96.5 55t-65.5 91.5t-24.5 127.5zM151 1206q10 92 63.5 158t156.5 66q41 0 77.5 -11.5t71.5 -25.5q35 -16 67.5 -27.5t65.5 -11.5q39 0 64.5 24.5t31.5 65.5h103q-4 -37 -19.5 -76t-42 -70.5t-61.5 -52t-76 -20.5t-81 12 t-79 27q-41 16 -78.5 27.5t-74.5 11.5q-33 0 -58.5 -31t-27.5 -66h-103zM233 270q0 -37 16.5 -67.5t41 -52t56.5 -33t63 -11.5q39 0 84 13.5t88 38t83 56.5t72 69v292q-504 -88 -504 -305z" />
<glyph unicode="&#xe4;" d="M86 272q0 88 35 155t112.5 119t201.5 91t302 70v57q0 106 -61.5 150t-157.5 44q-61 0 -107 -15t-79 -39.5t-54.5 -54.5t-31.5 -56l-129 67q51 92 149.5 158.5t249.5 66.5q68 0 133.5 -17t117.5 -55t85 -98.5t33 -148.5v-537q0 -88 7 -138t17 -91h-151l-17 147 q-55 -61 -143 -114t-209 -53q-61 0 -116.5 18t-96.5 55t-65.5 91.5t-24.5 127.5zM233 270q0 -37 16.5 -67.5t41 -52t56.5 -33t63 -11.5q39 0 84 13.5t88 38t83 56.5t72 69v292q-504 -88 -504 -305zM250 1208v193h180v-193h-180zM573 1208v193h181v-193h-181z" />
<glyph unicode="&#xe5;" d="M86 272q0 88 35 155t112.5 119t201.5 91t302 70v57q0 106 -61.5 150t-157.5 44q-61 0 -107 -15t-79 -39.5t-54.5 -54.5t-31.5 -56l-129 67q51 92 149.5 158.5t249.5 66.5q68 0 133.5 -17t117.5 -55t85 -98.5t33 -148.5v-537q0 -88 7 -138t17 -91h-151l-17 147 q-55 -61 -143 -114t-209 -53q-61 0 -116.5 18t-96.5 55t-65.5 91.5t-24.5 127.5zM233 270q0 -37 16.5 -67.5t41 -52t56.5 -33t63 -11.5q39 0 84 13.5t88 38t83 56.5t72 69v292q-504 -88 -504 -305zM297 1393q0 86 59.5 145t145.5 59t145 -59t59 -145t-59 -145.5t-145 -59.5 t-145.5 59.5t-59.5 145.5zM387 1393q0 -47 34 -81t81 -34t80.5 34t33.5 81t-33.5 80.5t-80.5 33.5t-81 -33.5t-34 -80.5z" />
<glyph unicode="&#xe6;" horiz-adv-x="1593" d="M70 250q0 119 52 197.5t138 130t197.5 80t230.5 49.5v57q0 195 -201 194q-59 0 -103 -15t-77 -39.5t-53.5 -54.5t-30.5 -56l-125 67q47 92 143.5 158.5t237.5 66.5q100 0 179 -32.5t128 -110.5q45 55 121 99t187 44q80 0 151.5 -27.5t126.5 -86t87 -150.5t32 -219v-98 h-655q0 -186 74.5 -292t228.5 -106q80 0 151.5 48.5t118.5 132.5l115 -60q-27 -45 -59.5 -89t-79 -79.5t-110 -57t-149.5 -21.5q-49 0 -97 7t-93 26.5t-87 54t-79 92.5q-59 -57 -110.5 -92t-100.5 -54.5t-98 -26.5t-101 -7q-53 0 -104 18t-93 52t-67.5 84t-25.5 116z M217 270q0 -74 52.5 -119t119.5 -45q51 0 99.5 16.5t87 41t68.5 54.5t44 56v301q-80 -16 -164 -39.5t-151.5 -58.5t-111.5 -86t-44 -121zM836 631h507q0 147 -68.5 237t-189.5 90q-129 0 -187 -90t-62 -237z" />
<glyph unicode="&#xe7;" d="M82 532q0 129 30.5 231.5t87 174.5t137.5 109.5t181 37.5q82 0 143.5 -21.5t107.5 -60t80 -92t58 -114.5l-137 -49q-31 98 -93.5 154t-158.5 56q-137 0 -213 -110.5t-76 -315.5t76 -315.5t213 -110.5q51 0 91 9.5t75 32t65.5 60.5t61.5 95l119 -53q-37 -61 -73 -109.5 t-78 -82t-93 -52t-117 -24.5l-80 -101l5 -4q31 10 61 10q88 0 131 -53t41 -119q-2 -86 -66.5 -130t-181.5 -44q-63 0 -109 13.5t-83 29.5l35 90q29 -18 64.5 -28.5t70.5 -10.5q115 0 114 89q0 33 -22.5 55t-61.5 22q-23 0 -47 -3t-47 -13l-35 39l115 158q-90 8 -162.5 49 t-123 111.5t-78 169t-27.5 220.5z" />
<glyph unicode="&#xe8;" d="M82 532q0 129 30.5 231.5t88 174.5t137.5 109.5t178 37.5q82 0 155.5 -27.5t129 -86t88.5 -150.5t33 -219v-98h-693q0 -88 25 -161t68 -125t100 -82t123 -30q98 0 173 48.5t122 132.5l114 -60q-27 -45 -59.5 -89t-80.5 -79.5t-113.5 -57t-155.5 -21.5t-173 31.5 t-147.5 99t-103.5 172t-39 249.5zM233 631h541q0 147 -66.5 237t-187.5 90q-135 0 -205.5 -90t-81.5 -237zM239 1479h224l182 -291h-137z" />
<glyph unicode="&#xe9;" d="M82 532q0 129 30.5 231.5t88 174.5t137.5 109.5t178 37.5q82 0 155.5 -27.5t129 -86t88.5 -150.5t33 -219v-98h-693q0 -88 25 -161t68 -125t100 -82t123 -30q98 0 173 48.5t122 132.5l114 -60q-27 -45 -59.5 -89t-80.5 -79.5t-113.5 -57t-155.5 -21.5t-173 31.5 t-147.5 99t-103.5 172t-39 249.5zM233 631h541q0 147 -66.5 237t-187.5 90q-135 0 -205.5 -90t-81.5 -237zM379 1188l182 291h223l-268 -291h-137z" />
<glyph unicode="&#xea;" d="M82 532q0 129 30.5 231.5t88 174.5t137.5 109.5t178 37.5q82 0 155.5 -27.5t129 -86t88.5 -150.5t33 -219v-98h-693q0 -88 25 -161t68 -125t100 -82t123 -30q98 0 173 48.5t122 132.5l114 -60q-27 -45 -59.5 -89t-80.5 -79.5t-113.5 -57t-155.5 -21.5t-173 31.5 t-147.5 99t-103.5 172t-39 249.5zM213 1188l200 291h193l205 -291h-164l-137 192l-133 -192h-164zM233 631h541q0 147 -66.5 237t-187.5 90q-135 0 -205.5 -90t-81.5 -237z" />
<glyph unicode="&#xeb;" d="M82 532q0 129 30.5 231.5t88 174.5t137.5 109.5t178 37.5q82 0 155.5 -27.5t129 -86t88.5 -150.5t33 -219v-98h-693q0 -88 25 -161t68 -125t100 -82t123 -30q98 0 173 48.5t122 132.5l114 -60q-27 -45 -59.5 -89t-80.5 -79.5t-113.5 -57t-155.5 -21.5t-173 31.5 t-147.5 99t-103.5 172t-39 249.5zM233 631h541q0 147 -66.5 237t-187.5 90q-135 0 -205.5 -90t-81.5 -237zM260 1208v193h180v-193h-180zM583 1208v193h181v-193h-181z" />
<glyph unicode="&#xec;" horiz-adv-x="569" d="M12 1479h224l182 -291h-137zM211 0v1065h147v-1065h-147z" />
<glyph unicode="&#xed;" horiz-adv-x="569" d="M152 1188l182 291h223l-268 -291h-137zM211 0v1065h147v-1065h-147z" />
<glyph unicode="&#xee;" horiz-adv-x="569" d="M-14 1188l200 291h193l205 -291h-164l-137 192l-133 -192h-164zM211 0v1065h147v-1065h-147z" />
<glyph unicode="&#xef;" horiz-adv-x="569" d="M33 1208v193h180v-193h-180zM211 0v1065h147v-1065h-147zM356 1208v193h181v-193h-181z" />
<glyph unicode="&#xf0;" d="M76 504q0 115 27.5 210t82 162.5t136 105.5t190.5 38q43 0 85 -10.5t67 -18.5q-23 47 -57 94.5t-75 94.5l-217 -119l-69 98l207 113q-57 55 -108.5 96t-82.5 62l129 49q92 -57 174 -140l226 123l61 -102l-199 -113q63 -72 116.5 -155.5t93.5 -176t62.5 -190.5t22.5 -197 q0 -121 -27.5 -221t-82 -173t-136 -113.5t-190.5 -40.5t-190.5 37.5t-136 106.5t-82 165t-27.5 215zM223 504q0 -182 71 -290t218 -108t218 108t71 290q0 88 -17.5 159.5t-53.5 123t-90 79t-128 27.5t-128 -27.5t-90 -79t-53.5 -123t-17.5 -159.5z" />
<glyph unicode="&#xf1;" horiz-adv-x="1138" d="M182 0v1065h148v-143h4q63 72 143 117.5t172 45.5q59 0 114.5 -16t98.5 -53t68.5 -96.5t25.5 -145.5v-774h-147v770q0 106 -47 147t-127 41q-41 0 -85 -15t-84 -38.5t-76 -52.5t-60 -55v-797h-148zM219 1206q10 92 63.5 158t156.5 66q41 0 77.5 -11.5t71.5 -25.5 q35 -16 67.5 -27.5t65.5 -11.5q39 0 64.5 24.5t31.5 65.5h103q-4 -37 -19.5 -76t-42 -70.5t-61.5 -52t-76 -20.5t-81 12t-79 27q-41 16 -78.5 27.5t-74.5 11.5q-33 0 -58.5 -31t-27.5 -66h-103z" />
<glyph unicode="&#xf2;" d="M76 532q0 115 27.5 216.5t82 176t136 117.5t190.5 43t190.5 -43t136 -117.5t82 -176t27.5 -216.5t-27.5 -216t-82 -175.5t-136 -117.5t-190.5 -43t-190.5 43t-136 117.5t-82 176t-27.5 215.5zM223 532q0 -207 78 -316.5t211 -109.5t211 109.5t78 316.5t-78 316.5 t-211 109.5t-211 -109.5t-78 -316.5zM239 1479h224l182 -291h-137z" />
<glyph unicode="&#xf3;" d="M76 532q0 115 27.5 216.5t82 176t136 117.5t190.5 43t190.5 -43t136 -117.5t82 -176t27.5 -216.5t-27.5 -216t-82 -175.5t-136 -117.5t-190.5 -43t-190.5 43t-136 117.5t-82 176t-27.5 215.5zM223 532q0 -207 78 -316.5t211 -109.5t211 109.5t78 316.5t-78 316.5 t-211 109.5t-211 -109.5t-78 -316.5zM379 1188l182 291h223l-268 -291h-137z" />
<glyph unicode="&#xf4;" d="M76 532q0 115 27.5 216.5t82 176t136 117.5t190.5 43t190.5 -43t136 -117.5t82 -176t27.5 -216.5t-27.5 -216t-82 -175.5t-136 -117.5t-190.5 -43t-190.5 43t-136 117.5t-82 176t-27.5 215.5zM213 1188l200 291h193l205 -291h-164l-137 192l-133 -192h-164zM223 532 q0 -207 78 -316.5t211 -109.5t211 109.5t78 316.5t-78 316.5t-211 109.5t-211 -109.5t-78 -316.5z" />
<glyph unicode="&#xf5;" d="M76 532q0 115 27.5 216.5t82 176t136 117.5t190.5 43t190.5 -43t136 -117.5t82 -176t27.5 -216.5t-27.5 -216t-82 -175.5t-136 -117.5t-190.5 -43t-190.5 43t-136 117.5t-82 176t-27.5 215.5zM161 1206q10 92 63.5 158t156.5 66q41 0 77.5 -11.5t71.5 -25.5 q35 -16 67.5 -27.5t65.5 -11.5q39 0 64.5 24.5t31.5 65.5h103q-4 -37 -19.5 -76t-42 -70.5t-61.5 -52t-76 -20.5t-81 12t-79 27q-41 16 -78.5 27.5t-74.5 11.5q-33 0 -58.5 -31t-27.5 -66h-103zM223 532q0 -207 78 -316.5t211 -109.5t211 109.5t78 316.5t-78 316.5 t-211 109.5t-211 -109.5t-78 -316.5z" />
<glyph unicode="&#xf6;" d="M76 532q0 115 27.5 216.5t82 176t136 117.5t190.5 43t190.5 -43t136 -117.5t82 -176t27.5 -216.5t-27.5 -216t-82 -175.5t-136 -117.5t-190.5 -43t-190.5 43t-136 117.5t-82 176t-27.5 215.5zM223 532q0 -207 78 -316.5t211 -109.5t211 109.5t78 316.5t-78 316.5 t-211 109.5t-211 -109.5t-78 -316.5zM260 1208v193h180v-193h-180zM583 1208v193h181v-193h-181z" />
<glyph unicode="&#xf7;" horiz-adv-x="1228" d="M82 469v127h1065v-127h-1065zM487 106q0 53 37 90t90 37t90 -36.5t37 -90.5q0 -53 -36.5 -89.5t-90.5 -36.5q-53 0 -90 36.5t-37 89.5zM487 958q0 53 37 90t90 37t90 -36.5t37 -90.5q0 -53 -36.5 -90t-90.5 -37q-53 0 -90 37t-37 90z" />
<glyph unicode="&#xf8;" d="M33 -168l170 289q-66 78 -96.5 183.5t-30.5 227.5q0 115 27.5 216.5t82 176t136 117.5t190.5 43q129 0 221 -63l125 211h133l-168 -287q61 -76 93 -182.5t32 -231.5q0 -115 -27.5 -216t-82 -175.5t-136 -117.5t-190.5 -43q-135 0 -223 63l-125 -211h-131zM223 532 q0 -174 58 -278l385 653q-63 51 -154 51q-133 0 -211 -109.5t-78 -316.5zM356 158q63 -51 156 -52q133 0 211 110t78 316q0 174 -58 279z" />
<glyph unicode="&#xf9;" horiz-adv-x="1138" d="M182 291v774h148v-770q0 -106 47 -147.5t127 -41.5q41 0 85 15.5t84 39t75.5 52.5t60.5 55v797h147v-1065h-147v143h-4q-63 -72 -143 -117.5t-173 -45.5q-59 0 -114.5 16t-98.5 53t-68.5 96.5t-25.5 145.5zM297 1479h224l182 -291h-137z" />
<glyph unicode="&#xfa;" horiz-adv-x="1138" d="M182 291v774h148v-770q0 -106 47 -147.5t127 -41.5q41 0 85 15.5t84 39t75.5 52.5t60.5 55v797h147v-1065h-147v143h-4q-63 -72 -143 -117.5t-173 -45.5q-59 0 -114.5 16t-98.5 53t-68.5 96.5t-25.5 145.5zM437 1188l182 291h223l-268 -291h-137z" />
<glyph unicode="&#xfb;" horiz-adv-x="1138" d="M182 291v774h148v-770q0 -106 47 -147.5t127 -41.5q41 0 85 15.5t84 39t75.5 52.5t60.5 55v797h147v-1065h-147v143h-4q-63 -72 -143 -117.5t-173 -45.5q-59 0 -114.5 16t-98.5 53t-68.5 96.5t-25.5 145.5zM271 1188l200 291h193l205 -291h-164l-137 192l-133 -192h-164z " />
<glyph unicode="&#xfc;" horiz-adv-x="1138" d="M182 291v774h148v-770q0 -106 47 -147.5t127 -41.5q41 0 85 15.5t84 39t75.5 52.5t60.5 55v797h147v-1065h-147v143h-4q-63 -72 -143 -117.5t-173 -45.5q-59 0 -114.5 16t-98.5 53t-68.5 96.5t-25.5 145.5zM318 1208v193h180v-193h-180zM641 1208v193h181v-193h-181z" />
<glyph unicode="&#xfd;" horiz-adv-x="909" d="M25 1065h155l287 -813h4l250 813h156l-375 -1159q-29 -90 -69 -147.5t-87 -91.5t-99 -47t-104 -13q-37 0 -60.5 4t-45.5 8v121q16 -2 35.5 -4t44.5 -2q33 0 73.5 7t79.5 32.5t73 76t52 138.5zM322 1188l182 291h223l-268 -291h-137z" />
<glyph unicode="&#xfe;" horiz-adv-x="1138" d="M180 -393v1872h148v-539h4q20 31 52 56.5t68.5 46t76.5 31.5t79 11q70 0 148 -26.5t141.5 -90t105 -170t41.5 -266.5q0 -156 -41.5 -261t-104 -169.5t-138.5 -93t-144 -28.5q-76 0 -147.5 33.5t-132.5 84.5l-8 4v-495h-148zM328 254q59 -66 130.5 -107t137.5 -41 q63 0 118.5 23t96.5 74t63.5 134t22.5 204q0 205 -81 311t-220 106q-72 0 -131 -32.5t-137 -110.5v-561z" />
<glyph unicode="&#xff;" horiz-adv-x="909" d="M25 1065h155l287 -813h4l250 813h156l-375 -1159q-29 -90 -69 -147.5t-87 -91.5t-99 -47t-104 -13q-37 0 -60.5 4t-45.5 8v121q16 -2 35.5 -4t44.5 -2q33 0 73.5 7t79.5 32.5t73 76t52 138.5zM203 1208v193h180v-193h-180zM526 1208v193h181v-193h-181z" />
<glyph unicode="&#x152;" horiz-adv-x="2048" d="M74 739q0 160 35.5 299.5t112.5 241.5t197 160.5t290 58.5q98 0 180 -10t160 -10h882v-140h-723v-495h514v-139h-514v-566h764v-139h-923q-78 0 -160 -10t-180 -10q-170 0 -290 58t-197 160.5t-112.5 242t-35.5 298.5zM238 739q0 -305 114.5 -462.5t352.5 -157.5 q82 0 145 13t106 44t65.5 82t22.5 127v709q0 150 -87 208t-252 58q-238 0 -352.5 -158t-114.5 -463z" />
<glyph unicode="&#x153;" horiz-adv-x="1593" d="M47 532q0 129 31 231.5t85 174.5t130 109.5t166 37.5q109 0 194.5 -44t149.5 -146q53 111 144 150.5t196 39.5q76 0 146.5 -27.5t124.5 -86t86 -150.5t32 -219v-98h-655q0 -88 14 -161t48 -125t86 -82t130 -30q96 0 168 48.5t107 132.5l114 -60q-20 -45 -52 -89 t-78 -79.5t-110.5 -57t-148.5 -21.5q-127 0 -214 45t-138 149q-61 -104 -148.5 -149t-195.5 -45q-90 0 -166 37.5t-130 109.5t-85 174t-31 231zM195 532q0 -205 67.5 -315.5t196.5 -110.5q135 0 202.5 111t67.5 315q0 205 -64.5 315.5t-205.5 110.5q-129 0 -196.5 -110.5 t-67.5 -315.5zM881 631h503q0 147 -66.5 237t-187.5 90q-133 0 -190 -90t-59 -237z" />
<glyph unicode="&#x178;" horiz-adv-x="1138" d="M33 1479h180l356 -678l357 678h180l-455 -856v-623h-164v623zM318 1577v193h180v-193h-180zM641 1577v193h181v-193h-181z" />
<glyph unicode="&#x2c6;" horiz-adv-x="569" d="M-14 1188l200 291h193l205 -291h-164l-137 192l-133 -192h-164z" />
<glyph unicode="&#x2dc;" horiz-adv-x="569" d="M-66 1206q10 92 63.5 158t156.5 66q41 0 77.5 -11.5t71.5 -25.5q35 -16 67.5 -27.5t65.5 -11.5q39 0 64.5 24.5t31.5 65.5h103q-4 -37 -19.5 -76t-42 -70.5t-61.5 -52t-76 -20.5t-81 12t-79 27q-41 16 -78.5 27.5t-74.5 11.5q-33 0 -58.5 -31t-27.5 -66h-103z" />
<glyph unicode="&#x2000;" horiz-adv-x="983" />
<glyph unicode="&#x2001;" horiz-adv-x="1966" />
<glyph unicode="&#x2002;" horiz-adv-x="983" />
<glyph unicode="&#x2003;" horiz-adv-x="1966" />
<glyph unicode="&#x2004;" horiz-adv-x="655" />
<glyph unicode="&#x2005;" horiz-adv-x="491" />
<glyph unicode="&#x2006;" horiz-adv-x="327" />
<glyph unicode="&#x2007;" horiz-adv-x="327" />
<glyph unicode="&#x2008;" horiz-adv-x="245" />
<glyph unicode="&#x2009;" horiz-adv-x="393" />
<glyph unicode="&#x200a;" horiz-adv-x="109" />
<glyph unicode="&#x2010;" horiz-adv-x="681" d="M82 469v127h516v-127h-516z" />
<glyph unicode="&#x2011;" horiz-adv-x="681" d="M82 469v127h516v-127h-516z" />
<glyph unicode="&#x2012;" horiz-adv-x="681" d="M82 469v127h516v-127h-516z" />
<glyph unicode="&#x2013;" d="M0 481v103h1024v-103h-1024z" />
<glyph unicode="&#x2014;" horiz-adv-x="2048" d="M0 481v103h2048v-103h-2048z" />
<glyph unicode="&#x2018;" horiz-adv-x="569" d="M178 983v225l129 291h86l-96 -291h82v-225h-201z" />
<glyph unicode="&#x2019;" horiz-adv-x="569" d="M176 963l96 290h-82v226h201v-226l-129 -290h-86z" />
<glyph unicode="&#x201a;" horiz-adv-x="569" d="M176 -291l96 291h-82v225h201v-225l-129 -291h-86z" />
<glyph unicode="&#x201c;" d="M211 983v225l129 291h86l-96 -291h82v-225h-201zM629 983v225l129 291h86l-96 -291h81v-225h-200z" />
<glyph unicode="&#x201d;" d="M180 963l96 290h-81v226h200v-226l-129 -290h-86zM598 963l96 290h-82v226h201v-226l-129 -290h-86z" />
<glyph unicode="&#x201e;" d="M180 -291l96 291h-81v225h200v-225l-129 -291h-86zM598 -291l96 291h-82v225h201v-225l-129 -291h-86z" />
<glyph unicode="&#x2022;" d="M141 739q0 76 29 143.5t79 118t116.5 79t144.5 28.5q76 0 143.5 -28.5t118.5 -79t80 -118t29 -143.5q0 -78 -29 -144.5t-80 -117.5t-118.5 -79.5t-143.5 -28.5q-78 0 -144.5 28.5t-116.5 79.5t-79 117.5t-29 144.5z" />
<glyph unicode="&#x2026;" horiz-adv-x="2048" d="M242 0v225h200v-225h-200zM924 0v225h200v-225h-200zM1606 0v225h200v-225h-200z" />
<glyph unicode="&#x202f;" horiz-adv-x="393" />
<glyph unicode="&#x2039;" horiz-adv-x="681" d="M111 532l266 324h143l-264 -324l264 -323h-139z" />
<glyph unicode="&#x203a;" horiz-adv-x="681" d="M162 209l264 323l-264 324h143l266 -324l-270 -323h-139z" />
<glyph unicode="&#x205f;" horiz-adv-x="491" />
<glyph unicode="&#x20ac;" horiz-adv-x="1251" d="M53 492l43 126h127v181h-170l43 127h127q0 115 35 219t99.5 183t158.5 125t215 46q41 0 94.5 -6t109.5 -27.5t114.5 -63.5t109.5 -116l-57 -168q-14 27 -44 71t-75 84t-107.5 69.5t-144.5 29.5q-98 0 -166.5 -42t-110.5 -107.5t-60.5 -144.5t-20.5 -152h663l-43 -127 h-616v-181h555l-43 -126h-512q2 -82 30.5 -153t76.5 -122t113 -81t140 -30q76 0 133.5 18.5t100.5 47.5t74.5 63.5t56.5 67.5v-170q-63 -72 -151.5 -112.5t-211.5 -40.5q-115 0 -207 39.5t-157.5 109.5t-104.5 163t-47 200h-170z" />
<glyph unicode="&#x2122;" horiz-adv-x="2027" d="M111 1368v111h659v-111h-262v-733h-139v733h-258zM893 635v844h215l254 -639l246 639h215v-844h-140v704h-4l-276 -704h-90l-277 704h-4v-704h-139z" />
<glyph unicode="&#xe000;" horiz-adv-x="1064" d="M0 0v1065h1065v-1065h-1065z" />
</font>
</defs>
</svg>
