<?xml version="1.0" encoding="utf-8"?>
<!-- Generator: Adobe Illustrator 21.1.0, SVG Export Plug-In . SVG Version: 6.00 Build 0)  -->
<svg version="1.1" id="Ebene_1" xmlns="http://www.w3.org/2000/svg" xmlns:xlink="http://www.w3.org/1999/xlink" x="0px" y="0px"
	 viewBox="0 0 165 40" style="enable-background:new 0 0 165 40;" xml:space="preserve">
<style type="text/css">
	.st0{fill:#009EFF;}
</style>
<g>
	<path class="st0" d="M38.3,2.3V38h-4.6V2.3H38.3z"/>
	<path class="st0" d="M46.3,38V2.3h5l11.4,18.1c2.6,4.2,4.7,7.9,6.4,11.6l0.1-0.1c-0.4-4.8-0.5-9.1-0.5-14.7V2.3h4.3V38h-4.7
		L57.1,19.9c-2.5-4-4.9-8.1-6.7-11.9L50.3,8c0.3,4.5,0.4,8.8,0.4,14.7V38H46.3z"/>
	<path class="st0" d="M81.2,2.7C83.4,2.3,86.3,2,90,2c4.6,0,7.9,1.1,10,3c2,1.7,3.1,4.3,3.1,7.5c0,3.2-1,5.8-2.8,7.6
		C98,22.7,94,24,89.5,24c-1.4,0-2.6-0.1-3.7-0.3V38h-4.6V2.7z M85.8,19.9c1,0.3,2.3,0.4,3.8,0.4c5.6,0,9-2.7,9-7.6
		c0-4.7-3.3-7-8.4-7c-2,0-3.5,0.2-4.3,0.4V19.9z"/>
	<path class="st0" d="M109.3,2.7c2.2-0.4,5.1-0.7,8.8-0.7c4.6,0,7.9,1.1,10,3c2,1.7,3.1,4.3,3.1,7.5c0,3.2-1,5.8-2.8,7.6
		c-2.4,2.6-6.4,3.9-10.9,3.9c-1.4,0-2.6-0.1-3.7-0.3V38h-4.6V2.7z M114,19.9c1,0.3,2.3,0.4,3.8,0.4c5.6,0,9-2.7,9-7.6
		c0-4.7-3.3-7-8.4-7c-2,0-3.5,0.2-4.3,0.4V19.9z"/>
</g>
</svg>
